<svg xmlns:xlink="http://www.w3.org/1999/xlink" width="64" xmlns="http://www.w3.org/2000/svg" height="64" id="screenshot-f37fbc90-1c11-11ed-8e10-65110c89f6ca" viewBox="1039 462 22 18.5" style="-webkit-print-color-adjust: exact;" fill="none" version="1.1"><g id="shape-f37fbc90-1c11-11ed-8e10-65110c89f6ca"><g id="fills-f37fbc90-1c11-11ed-8e10-65110c89f6ca"><path rx="0" ry="0" d="M1052.06,469.94L1050,469L1052.06,468.06L1053,466L1053.94,468.06L1056,469L1053.94,469.94L1053,472L1052.06,469.94ZZM1042,474L1042.94,471.94L1045,471L1042.94,470.06L1042,468L1041.06,470.06L1039,471L1041.06,471.94L1042,474ZZM1046.5,469L1047.5900000000001,466.59L1050,465.5L1047.5900000000001,464.41L1046.5,462L1045.4099999999999,464.41L1043,465.5L1045.4099999999999,466.59L1046.5,469ZZM1042.5,480.5L1048.5,474.49L1052.5,478.49L1061,468.93L1059.5900000000001,467.52L1052.5,475.49L1048.5,471.49L1041,479L1042.5,480.5ZZ" style="fill: rgb(233, 232, 234); fill-opacity: 1;"/></g></g></svg>
