<svg xmlns:xlink="http://www.w3.org/1999/xlink" fill-rule="evenodd" stroke-linecap="square" width="64" height="64" viewBox="966 503.5 16 18" xmlns="http://www.w3.org/2000/svg"  id="screenshot-d0fa4330-1c10-11ed-8e10-65110c89f6ca"  style="-webkit-print-color-adjust: exact;" fill="none" version="1.1"><g id="shape-d0fa4330-1c10-11ed-8e10-65110c89f6ca"><g id="fills-d0fa4330-1c10-11ed-8e10-65110c89f6ca"><path fill-rule="evenodd" stroke-linecap="square" rx="0" ry="0" d="M974,503.5L966,509.5L966,521.5L982,521.5L982,509.5L974,503.5ZZM974.5,513C974.5,513.83,973.83,514.5,973,514.5L973,518.5L972,518.5L972,514.5C971.17,514.5,970.5,513.83,970.5,513L970.5,510L971.5,510L971.5,513L972,513L972,510L973,510L973,513L973.5,513L973.5,510L974.5,510L974.5,513ZZM977,518.5L976,518.5L976,515L975,515L975,512C975,510.9,975.9,510,977,510L977,518.5ZZ" style="fill: rgb(233, 232, 234); fill-opacity: 1;"/></g></g></svg>
