<svg xmlns:xlink="http://www.w3.org/1999/xlink" width="64" xmlns="http://www.w3.org/2000/svg" height="64" id="screenshot-d17b8bb0-1c11-11ed-8e10-65110c89f6ca" viewBox="887.8685769774129 494.05362931610813 18 19.999999999999943" style="-webkit-print-color-adjust: exact;" fill="none" version="1.1"><g id="shape-d17b8bb0-1c11-11ed-8e10-65110c89f6ca"><g id="fills-d17b8bb0-1c11-11ed-8e10-65110c89f6ca"><path fill="none" rx="0" ry="0" d="M903.8685769774129,496.05362931610813L902.8685769774129,496.05362931610813L902.8685769774129,494.05362931610813L900.8685769774129,494.05362931610813L900.8685769774129,496.05362931610813L892.8685769774129,496.05362931610813L892.8685769774129,494.05362931610813L890.8685769774129,494.05362931610813L890.8685769774129,496.05362931610813L889.8685769774129,496.05362931610813C888.7585769774129,496.05362931610813,887.8785769774129,496.9536293161081,887.8785769774129,498.05362931610813L887.8685769774129,512.0536293161081C887.8685769774129,513.1536293161081,888.7585769774129,514.0536293161081,889.8685769774129,514.0536293161081L903.8685769774129,514.0536293161081C904.9685769774129,514.0536293161081,905.8685769774129,513.1536293161081,905.8685769774129,512.0536293161081L905.8685769774129,498.05362931610813C905.8685769774129,496.9536293161081,904.9685769774129,496.05362931610813,903.8685769774129,496.05362931610813ZZM903.8685769774129,512.0536293161081L889.8685769774129,512.0536293161081L889.8685769774129,501.05362931610813L903.8685769774129,501.05362931610813L903.8685769774129,512.0536293161081ZZM891.8685769774129,503.05362931610813L896.8685769774129,503.05362931610813L896.8685769774129,508.05362931610813L891.8685769774129,508.05362931610813Z" style="fill: rgb(233, 232, 234); fill-opacity: 1;"/></g></g></svg>
